<svg width="2048" height="1024" viewBox="0 0 2048 1024" fill="none" xmlns="http://www.w3.org/2000/svg">
  <rect width="2048" height="520" fill="#B8E2FF"/>
  <rect y="520" width="2048" height="210" fill="#6EA759"/>
  <rect y="730" width="2048" height="294" fill="#5C3E30"/>
  <polygon points="560,248 380,620 740,620" fill="#67DFFF" fill-opacity="0.45"/>
  <ellipse cx="560" cy="228" rx="66" ry="28" fill="#21252D"/>
  <line x1="560" y1="228" x2="485" y2="170" stroke="#222831" stroke-width="8"/>
  <line x1="560" y1="228" x2="635" y2="170" stroke="#222831" stroke-width="8"/>
  <circle cx="485" cy="170" r="24" stroke="#1f2328" stroke-width="5"/>
  <circle cx="635" cy="170" r="24" stroke="#1f2328" stroke-width="5"/>
  <rect x="1060" y="560" width="34" height="230" rx="8" fill="#8C9097"/>
  <line x1="1077" y1="560" x2="1180" y2="492" stroke="#A0A4AA" stroke-width="14"/>
  <line x1="1180" y1="492" x2="1260" y2="530" stroke="#A0A4AA" stroke-width="10"/>
  <rect x="1470" y="560" width="34" height="230" rx="8" fill="#8C9097"/>
  <line x1="1487" y1="560" x2="1590" y2="492" stroke="#A0A4AA" stroke-width="14"/>
  <line x1="1590" y1="492" x2="1670" y2="530" stroke="#A0A4AA" stroke-width="10"/>
  <rect x="700" y="765" width="72" height="200" rx="15" fill="#6FA9C5" stroke="#B8F3FF" stroke-width="3"/>
  <rect x="1210" y="765" width="72" height="200" rx="15" fill="#6FA9C5" stroke="#B8F3FF" stroke-width="3"/>
  <rect x="1620" y="765" width="72" height="200" rx="15" fill="#6FA9C5" stroke="#B8F3FF" stroke-width="3"/>
  <g stroke="#B6C9A0" stroke-opacity="0.6" stroke-width="2">
    <line x1="736" y1="965" x2="630" y2="1015"/>
    <line x1="736" y1="965" x2="840" y2="1018"/>
    <line x1="1246" y1="965" x2="1120" y2="1015"/>
    <line x1="1246" y1="965" x2="1360" y2="1018"/>
    <line x1="1656" y1="965" x2="1545" y2="1018"/>
    <line x1="1656" y1="965" x2="1768" y2="1018"/>
  </g>
</svg>
